<svg width="80" height="80" viewBox="0 0 80 80" fill="none" xmlns="http://www.w3.org/2000/svg">
<path d="M21.5019 28.402L36.0459 20.002V50.722C36.0459 51.554 35.8379 52.45 35.4219 53.41C35.0379 54.37 34.5259 55.266 33.8859 56.098C33.2779 56.898 32.6059 57.506 31.8699 57.922L21.5019 63.922C20.3819 64.562 19.4059 64.642 18.5739 64.162C17.7419 63.682 17.3259 62.802 17.3259 61.522V50.002L21.5019 47.602V59.122L31.8699 53.122L31.8699 22.402C31.8699 23.234 31.6779 24.13 31.2939 25.09C30.9099 26.05 30.3979 26.946 29.7579 27.778C29.1179 28.578 28.4299 29.186 27.6939 29.602L21.5019 33.202L21.5019 28.402ZM31.8699 22.402L31.8699 53.122L27.6939 50.722L27.6939 20.002L31.8699 22.402ZM31.8699 53.122L21.5019 59.122L17.3259 56.722L27.6939 50.722L31.8699 53.122ZM36.0459 20.002L21.5019 28.402L17.3259 26.002L31.8699 17.6019L36.0459 20.002ZM21.5019 28.402L21.5019 33.202L17.3259 30.802V26.002L21.5019 28.402ZM21.5019 47.602L17.3259 50.002L13.1499 47.602L17.3259 45.202L21.5019 47.602ZM17.3259 50.002V61.522C17.3259 62.802 17.7419 63.682 18.5739 64.162L14.3979 61.762C13.5659 61.282 13.1499 60.402 13.1499 59.122V47.602L17.3259 50.002ZM48.5488 26.482L65.1568 16.882C66.2448 16.242 67.2048 16.162 68.0368 16.642C68.9008 17.122 69.3328 18.002 69.3328 19.282V50.002L65.1568 52.402V21.682L58.9168 25.282V56.002L54.7408 58.402V27.682L48.5488 31.282L48.5488 62.002L44.3728 64.402L44.3728 33.682C44.3728 32.818 44.5648 31.922 44.9488 30.994C45.3328 30.034 45.8448 29.154 46.4848 28.354C47.1248 27.522 47.8128 26.898 48.5488 26.482ZM65.1568 21.682V52.402L60.9808 50.002V19.282L65.1568 21.682ZM54.7408 27.682V58.402L50.6128 56.002V25.282L54.7408 27.682ZM68.0368 16.642C67.2048 16.162 66.2448 16.242 65.1568 16.882L48.5488 26.482C47.8128 26.898 47.1248 27.522 46.4848 28.354C45.8448 29.154 45.3328 30.034 44.9488 30.994C44.5648 31.922 44.3728 32.818 44.3728 33.682L44.3728 64.402L40.1968 62.002L40.1968 31.282C40.1968 30.418 40.3888 29.522 40.7728 28.594C41.1568 27.634 41.6688 26.754 42.3088 25.954C42.9488 25.122 43.6368 24.498 44.3728 24.082L60.9808 14.4819C62.1008 13.842 63.0768 13.762 63.9088 14.242L68.0368 16.642Z" fill="#CB997E"/>
<path d="M19.0019 26.4L33.5459 18V48.72C33.5459 49.552 33.3379 50.448 32.9219 51.408C32.5379 52.368 32.0259 53.264 31.3859 54.096C30.7779 54.896 30.1059 55.504 29.3699 55.92L19.0019 61.92C17.8819 62.56 16.9059 62.64 16.0739 62.16C15.2419 61.68 14.8259 60.8 14.8259 59.52V48L19.0019 45.6V57.12L29.3699 51.12L29.3699 20.4C29.3699 21.232 29.1779 22.128 28.7939 23.088C28.4099 24.048 27.8979 24.944 27.2579 25.776C26.6179 26.576 25.9299 27.184 25.1939 27.6L19.0019 31.2L19.0019 26.4ZM29.3699 20.4L29.3699 51.12L25.1939 48.72L25.1939 18L29.3699 20.4ZM29.3699 51.12L19.0019 57.12L14.8259 54.72L25.1939 48.72L29.3699 51.12ZM33.5459 18L19.0019 26.4L14.8259 24L29.3699 15.6L33.5459 18ZM19.0019 26.4L19.0019 31.2L14.8259 28.8V24L19.0019 26.4ZM19.0019 45.6L14.8259 48L10.6499 45.6L14.8259 43.2L19.0019 45.6ZM14.8259 48V59.52C14.8259 60.8 15.2419 61.68 16.0739 62.16L11.8979 59.76C11.0659 59.28 10.6499 58.4 10.6499 57.12V45.6L14.8259 48ZM46.0488 24.48L62.6568 14.88C63.7448 14.24 64.7048 14.16 65.5368 14.64C66.4008 15.12 66.8328 16 66.8328 17.28V48L62.6568 50.4V19.68L56.4168 23.28V54L52.2408 56.4V25.68L46.0488 29.28L46.0488 60L41.8728 62.4L41.8728 31.68C41.8728 30.816 42.0648 29.92 42.4488 28.992C42.8328 28.032 43.3448 27.152 43.9848 26.352C44.6248 25.52 45.3128 24.896 46.0488 24.48ZM62.6568 19.68V50.4L58.4808 48V17.28L62.6568 19.68ZM52.2408 25.68V56.4L48.1128 54V23.28L52.2408 25.68ZM65.5368 14.64C64.7048 14.16 63.7448 14.24 62.6568 14.88L46.0488 24.48C45.3128 24.896 44.6248 25.52 43.9848 26.352C43.3448 27.152 42.8328 28.032 42.4488 28.992C42.0648 29.92 41.8728 30.816 41.8728 31.68L41.8728 62.4L37.6968 60L37.6968 29.28C37.6968 28.416 37.8888 27.52 38.2728 26.592C38.6568 25.632 39.1688 24.752 39.8088 23.952C40.4488 23.12 41.1368 22.496 41.8728 22.08L58.4808 12.48C59.6008 11.84 60.5768 11.76 61.4088 12.24L65.5368 14.64Z" fill="white"/>
</svg>
